<?xml version="1.0" encoding="UTF-8"?>
<svg fill='#e5ebf1' width="700pt" height="700pt" version="1.1" viewBox="20 0 700 550" xmlns="http://www.w3.org/2000/svg">
 <path d="m583.33 373.33v-186.66c0-38.664-31.336-70-70-70h-252.72c-20.16 0-39.316 8.6797-52.617 23.844-19.832 22.613-56.605 64.52-81.875 93.336-23.172 26.414-23.172 65.891 0 92.305 25.27 28.816 62.043 70.723 81.875 93.336 13.301 15.164 32.457 23.844 52.617 23.844h252.72c38.664 0 70-31.336 70-70zm-242.99-93.332-30.168 30.172c-9.1016 9.0977-9.1016 23.891 0 32.992 9.0977 9.0977 23.891 9.0977 32.992 0l30.168-30.172 30.172 30.172c9.0977 9.0977 23.895 9.0977 32.992 0 9.1016-9.1016 9.1016-23.895 0-32.992l-30.168-30.172 30.168-30.172c9.1016-9.0977 9.1016-23.891 0-32.992-9.0977-9.0977-23.895-9.0977-32.992 0l-30.172 30.172-30.168-30.172c-9.1016-9.0977-23.895-9.0977-32.992 0-9.1016 9.1016-9.1016 23.895 0 32.992z" fill-rule="evenodd"/>
</svg>
